inDegrees=no
num_controls=7
num_derivatives=13
num_iterations=36
num_multipliers=7
num_parameters=0
num_slacks=7
num_states=26
objective=0.425149
objective_accelerations=0.060225
objective_balance=0.001149
objective_effort=0.015977
objective_height=0.341938
objective_ligament=0.005859
solver_duration=552.156664
status=Solve_Succeeded
success=true
DataType=double
version=3
OpenSimVersion=4.5
endheader
time	/jointset/ground_pelvis/pelvis_tilt/value	/jointset/ground_pelvis/pelvis_tx/value	/jointset/ground_pelvis/pelvis_ty/value	/jointset/hip_l/hip_flexion_l/value	/jointset/hip_l/hip_adduction_l/value	/jointset/hip_l/hip_rotation_l/value	/jointset/back/lumbar_extension/value	/jointset/patellofemoral_l/patellar_flexion_l/value	/jointset/knee_l/knee_flexion_l/value	/jointset/knee_l/knee_adduction_l/value	/jointset/knee_l/knee_rotation_l/value	/jointset/ankle_l/ankle_angle_l/value	/jointset/subtalar_l/subtalar_angle_l/value	/jointset/ground_pelvis/pelvis_tilt/speed	/jointset/ground_pelvis/pelvis_tx/speed	/jointset/ground_pelvis/pelvis_ty/speed	/jointset/hip_l/hip_flexion_l/speed	/jointset/hip_l/hip_adduction_l/speed	/jointset/hip_l/hip_rotation_l/speed	/jointset/back/lumbar_extension/speed	/jointset/patellofemoral_l/patellar_flexion_l/speed	/jointset/knee_l/knee_flexion_l/speed	/jointset/knee_l/knee_adduction_l/speed	/jointset/knee_l/knee_rotation_l/speed	/jointset/ankle_l/ankle_angle_l/speed	/jointset/subtalar_l/subtalar_angle_l/speed	/forceset/tau_hip_flexion_l	/forceset/tau_hip_adduction_l	/forceset/tau_hip_rotation_l	/forceset/tau_knee_flexion_l	/forceset/tau_ankle_angle_l	/forceset/tau_subtalar_angle_l	/forceset/tau_lumbar_extension	lambda_cid13_p0	lambda_cid13_p1	lambda_cid13_p2	lambda_cid13_p3	lambda_cid13_p4	lambda_cid13_p5	lambda_cid14_p0	/jointset/ground_pelvis/pelvis_tilt/accel	/jointset/ground_pelvis/pelvis_tx/accel	/jointset/ground_pelvis/pelvis_ty/accel	/jointset/hip_l/hip_flexion_l/accel	/jointset/hip_l/hip_adduction_l/accel	/jointset/hip_l/hip_rotation_l/accel	/jointset/back/lumbar_extension/accel	/jointset/patellofemoral_l/patellar_flexion_l/accel	/jointset/knee_l/knee_flexion_l/accel	/jointset/knee_l/knee_adduction_l/accel	/jointset/knee_l/knee_rotation_l/accel	/jointset/ankle_l/ankle_angle_l/accel	/jointset/subtalar_l/subtalar_angle_l/accel	gamma_cid13_p0	gamma_cid13_p1	gamma_cid13_p2	gamma_cid13_p3	gamma_cid13_p4	gamma_cid13_p5	gamma_cid14_p0
0	0.04849101123334888	0.1078788997275404	0.9029022613896893	0.1266922784136757	-0.3697808028500625	-0.2227960272712086	-0.2144969558742783	0.2051545070141864	0.2051545070141877	-0.1739754441889716	-0.1579588395566811	0.09024313228550125	0.07927986482905955	0	0	0	0	0	0	0	0	0	0	0	0	0	0.1182513137240012	-0.03385150662011246	-0.009978023178405909	-0.2501118294943323	0.1899010135718335	-0.1094839844789229	-0.05129545529258075	28.74542392631167	43.86524811973251	-8.815748931258355	-16.99533359977512	-440.1985984733922	-28.55179657181339	-26.16764119210199	-3.744467419078198	-1.251567722427417	-0.8661799006677714	12.20892348709934	0.05162883153332433	3.145684172516543	-3.822981209100662	10.7361182335454	10.7361182335308	2.706175472893888	-0.9483134664187435	3.328764392867102	1.017111086074965	1.973049444885834e-08	5.425677803796537e-07	-1.876426251638598e-07	5.377458810932344e-08	-9.605632872027012e-08	2.356008796653817e-07	9.450286628400258e-08
0.01	0.04831356179471424	0.1078188736243324	0.9028599859011103	0.1272844932036977	-0.3697785842539202	-0.2226291580718463	-0.2146915651618045	0.2056828486535501	0.2056828486535485	-0.1738435242362044	-0.157993969333061	0.09041054384133601	0.07933050075024442	-0.03519161702102013	-0.01177833275101919	-0.008459794474809674	0.1178005684272123	0.0003008668237458505	0.03341602926810029	-0.03855950047423021	0.1056783714082579	0.1056783714082176	0.02608775524251422	-0.007021863774444055	0.03379003738546641	0.01006632838881908	0.1167504692158242	-0.04237756209090825	-0.009920581202288828	-0.2513249835502137	0.192449542545279	-0.1023825090782228	-0.04958981308974941	30.07703437579622	40.5807132399655	-8.329557938913817	-19.63708016982913	-439.7462959313481	-35.30621521759683	-26.16753952202995	-3.361761924117854	-1.106922112761849	-0.836602945999534	11.46926923686081	-0.002170514886448663	3.445935916315181	-3.818080911891701	10.48518422436029	10.48518422436367	2.515714705213266	-0.5785535430315802	3.450299532318561	0.9922021364511581	7.987142300403096e-09	9.164245625703627e-07	-1.431525538241072e-07	9.254261093552768e-08	-2.141833009027109e-07	3.029969741720623e-07	1.300225774045869e-07
0.02	0.04779314556976602	0.1076478729813499	0.9027329677227602	0.1290354428212448	-0.3697776542140711	-0.2221268538573317	-0.2152608987431395	0.2072682715329631	0.2072682715329633	-0.1734595988999781	-0.1580992038892149	0.09092509099520696	0.07947996163955026	-0.06859335726218681	-0.02219490795491029	-0.01694853795420408	0.2317469655075704	-0.000257711259779346	0.06708700303053605	-0.07494485876076536	0.2114162480122841	0.2114162480122864	0.05040107669636456	-0.01402095595186025	0.06942711960821857	0.0197649936242747	0.1152496247074902	-0.05090361756165897	-0.009863139226147897	-0.2525381376061697	0.194998071518717	-0.09528103367747644	-0.04788417088704972	31.45755618368056	37.30539568070792	-7.865150524111275	-22.32542693698399	-438.3919628400728	-41.85887331030493	-26.16713762668902	-3.386492063107521	-0.9792162130017358	-0.8719697015847165	11.43808921772843	-0.1202601499208769	3.196673071383648	-3.388152771561654	10.74801927269905	10.74801927270103	2.351288715161127	-0.9437591470131631	3.698173360324327	0.9435784554023	-3.756209848052147e-09	1.290281344761072e-06	-9.866248248435467e-08	1.313106337617319e-07	-3.323102730851517e-07	3.70393068678743e-07	1.655422885251712e-07
0.03	0.04694491074485678	0.1073770406977842	0.9025210289426358	0.1319090289677651	-0.3697843343342694	-0.2212909852935266	-0.2161840948185935	0.2099045750954875	0.2099045750954738	-0.1728386853933359	-0.1582749548596948	0.09179854678246561	0.07972511118462385	-0.1009946786275183	-0.03199083684775945	-0.02542687067813289	0.3425162144660867	-0.0009970127130926694	0.09987517520427593	-0.1094563957409813	0.3151223617593673	0.3151223617593944	0.07373039871260587	-0.02099466809883685	0.1048943563549268	0.02924982604735881	0.1114274572052898	-0.04602329735896435	-0.008842391735108828	-0.2472973251312259	0.187084080693072	-0.09634516507341258	-0.04510542892181699	28.804254900337	38.04372618978017	-7.767666213025423	-20.09282192565868	-438.7319433374834	-39.59309053415974	-26.16622031581775	-3.158105163496963	-0.9826480219059757	-0.833979888236464	10.82823635905792	-0.03874937037627432	3.288212796787691	-3.446960072885552	10.07355876388189	10.07355876388411	2.316279118704387	-0.5540372225085973	3.415587021639094	0.9484798296766678	-5.986822372282196e-09	1.463402080825416e-06	-1.615889765183812e-07	1.607851264935043e-07	-4.880679975541316e-07	4.455474679420934e-07	2.000047420452182e-07
0.04	0.04577443210824338	0.1070076757663942	0.9022246638691831	0.1358766863286952	-0.3697960043144677	-0.2201335703067079	-0.2174452674461809	0.2135562700631049	0.2135562700631035	-0.1719859736318095	-0.1585164149464535	0.09301559257514234	0.0800646178927109	-0.1330421196028914	-0.04190143751977111	-0.0338337966197718	0.4505612083903794	-0.001255683260003185	0.1313962876347575	-0.1425401691865615	0.4144945290332052	0.4144945290332365	0.0967607276828137	-0.02716277920455991	0.1381451206934362	0.03863642622705762	0.1076052897030586	-0.04114297715620146	-0.007821644244044005	-0.2420565126562567	0.1791700898674633	-0.09740929646926472	-0.04232668695665825	26.19661225271872	38.79342852042426	-7.694118511566863	-17.90693440209466	-438.2259918669569	-37.12942257593139	-26.16380251603909	-3.315715985115878	-1.002150568834172	-0.857688345126737	10.89323821088369	-0.02413396864029679	2.943261122731983	-3.102600064634514	9.881229978049983	9.881229978047818	2.291490105954466	-0.7826389387624456	3.254878878684628	0.9239320067252762	-8.021295935188015e-09	1.632383929340762e-06	-2.267302450961971e-07	1.900680000480719e-07	-6.44601613822834e-07	5.208618322519731e-07	2.344453964394809e-07
0.05	0.04428551334480017	0.1065393449928211	0.9018440816351981	0.1409119924065984	-0.3698090379946158	-0.2186681132928226	-0.2190287271642682	0.218184084624226	0.2181840846242275	-0.1709059419325849	-0.1588180635900673	0.09455662615020674	0.08049703394812713	-0.16457981271682	-0.05170928813441385	-0.04230896026528147	0.5559855696659177	-0.001385818813680938	0.1615703906780684	-0.1738516455028395	0.5106323456567352	0.510632345656762	0.1190135025245266	-0.03308302128476463	0.1699147966994503	0.04777460003954584	0.103353554073065	-0.03925997857526238	-0.006745757874025177	-0.2378621378097926	0.1731082880137619	-0.09609853405718284	-0.03915812675114263	24.38050233318881	38.42406840058116	-7.500351481591909	-16.94291183962055	-437.1965030497828	-36.91123797677803	-26.15880895373561	-3.048504667491803	-0.9617496983236328	-0.8465070727027865	10.28987588987011	-0.01287405461905132	3.035860489196436	-3.100402075948375	9.414604707089644	9.414604707090428	2.157607579555798	-0.4842016906087588	3.116043037139792	0.8977022124813885	-1.107389407277631e-08	1.658256895674021e-06	-2.337356481380066e-07	1.978049174269518e-07	-7.042544761615616e-07	5.303437601072433e-07	2.402887286349276e-07
0.06	0.04248607591162967	0.1059746062349928	0.9013779324250693	0.1469861102580474	-0.3698244571714726	-0.2169046401296887	-0.220916297777685	0.2237601867920879	0.2237601867920842	-0.1696102952036853	-0.159176411624088	0.09641096270044698	0.08101862017046214	-0.1951458535491566	-0.06118303437080351	-0.05094719184855852	0.6583235631007006	-0.001732782602854648	0.1909995174840085	-0.2033623482520795	0.6041520503836648	0.6041520503837019	0.1398837336172941	-0.03850265728333825	0.2008057157286644	0.05647045961087113	0.09910181844292125	-0.03737697999431184	-0.005669871503962442	-0.2336677629634355	0.1670464861600285	-0.09478777164509836	-0.03598956654571558	22.60489463678247	38.06383160176065	-7.326562239697487	-16.01326126442792	-435.4173275116725	-36.51378722328593	-26.14998599634443	-3.121385528797483	-0.935329693183503	-0.890301932680211	10.27596464273254	-0.06749961573946664	2.794265875257802	-2.742445351226912	9.357607598729858	9.357607598730665	2.014981356165441	-0.6825177224362151	3.079127483324719	0.8354691584927267	-1.416936061350913e-08	1.678104224862772e-06	-2.382932252625104e-07	2.046346366510659e-07	-7.598281488611322e-07	5.370537959012668e-07	2.44927963053582e-07
0.07000000000000001	0.04038501062603232	0.1053166812473186	0.9008244404113566	0.1540692082327895	-0.3698437960793045	-0.2148523014123635	-0.2230902541362132	0.2302583401615941	0.2302583401615872	-0.1681117056676875	-0.1595876116524571	0.09856953956480459	0.08162560468052836	-0.2249217135117798	-0.07035537727521284	-0.05978166233736449	0.7577620481250991	-0.002105682870473163	0.2193230056411764	-0.2312249845323807	0.6949343340428201	0.6949343340429229	0.1596894099558399	-0.04359121042551577	0.2307076474256455	0.06490981705413487	0.09534454815051879	-0.03544230320348726	-0.004657806397451062	-0.2307895152489733	0.1622850589020318	-0.09346209908924599	-0.03324560536767866	21.21426885292179	37.68546836133927	-7.213568990571125	-15.26637307996297	-434.1566307893297	-36.25362270324968	-26.13602941555563	-2.883841758999191	-0.9011576958811718	-0.8847399627230151	9.697700255706966	-0.01799442745216125	2.829695582151898	-2.777581928304024	8.856846286520321	8.856846286529723	1.941904410194036	-0.4001783811627642	2.915476567711822	0.8454400538717068	-1.447883465920202e-08	1.459528797935791e-06	-3.066265280644221e-07	1.897459900296597e-07	-7.569973895209462e-07	5.514041383060477e-07	2.275297527919714e-07
0.08	0.03799055563500855	0.1045684386092381	0.9001816596216063	0.1621306730224575	-0.3698660258288443	-0.2125210667542262	-0.2255367186899206	0.2376479778750869	0.237647977875077	-0.1664193506408093	-0.1600453280664648	0.1010210858570962	0.08231643696835278	-0.2538237946345664	-0.07924656445205168	-0.06880494705603814	0.8539969260860371	-0.002310950945251355	0.2467787056465661	-0.2578639872875785	0.782448919182448	0.7824489191826135	0.1786368317941916	-0.04780593440986116	0.2593996013157056	0.07324001516254369	0.09158727785806672	-0.0335076264126504	-0.003645741290923033	-0.2279112675345591	0.15752363164402	-0.09213642653338482	-0.03050164418966716	19.8595160055852	37.31580078908294	-7.119070397245531	-14.54563985246994	-432.2292046509118	-35.82845770899661	-26.11524141592219	-2.946629760830109	-0.8790985476693549	-0.9280647786537454	9.635243230040398	-0.03397317717137792	2.620708244902148	-2.497718646206196	8.704067894824346	8.70406789482454	1.843330456126685	-0.5077518908697752	2.837131921940603	0.8136372915217854	-1.460856725360201e-08	1.225571257711022e-06	-3.790743938132633e-07	1.734561585149943e-07	-7.503986023072276e-07	5.662474037179743e-07	2.087097719058276e-07
